<mxfile host="app.diagrams.net" modified="2023-08-23T04:45:23.463Z" agent="Mozilla/5.0 (Windows NT 10.0; Win64; x64) AppleWebKit/537.36 (KHTML, like Gecko) Chrome/116.0.0.0 Safari/537.36" etag="k-kpgM48pi3tOPLK9J-I" version="21.6.9" type="github">
  <diagram name="페이지-1" id="_47QIniZ-xJPZ_9HhIn5">
    <mxGraphModel dx="1050" dy="566" grid="1" gridSize="10" guides="1" tooltips="1" connect="1" arrows="1" fold="1" page="1" pageScale="1" pageWidth="827" pageHeight="1169" math="0" shadow="0">
      <root>
        <mxCell id="0" />
        <mxCell id="1" parent="0" />
        <mxCell id="t0pk2Relg8GuADg_41hj-26" value="Actor" style="rounded=0;whiteSpace=wrap;html=1;" parent="1" vertex="1">
          <mxGeometry x="50" y="50" width="120" height="60" as="geometry" />
        </mxCell>
        <mxCell id="t0pk2Relg8GuADg_41hj-27" value="Front" style="rounded=0;whiteSpace=wrap;html=1;" parent="1" vertex="1">
          <mxGeometry x="230" y="50" width="120" height="60" as="geometry" />
        </mxCell>
        <mxCell id="t0pk2Relg8GuADg_41hj-28" value="Back" style="rounded=0;whiteSpace=wrap;html=1;" parent="1" vertex="1">
          <mxGeometry x="410.5" y="50" width="120" height="60" as="geometry" />
        </mxCell>
        <mxCell id="t0pk2Relg8GuADg_41hj-29" value="Database" style="rounded=0;whiteSpace=wrap;html=1;" parent="1" vertex="1">
          <mxGeometry x="590" y="50" width="120" height="60" as="geometry" />
        </mxCell>
        <mxCell id="t0pk2Relg8GuADg_41hj-30" value="" style="endArrow=none;html=1;rounded=0;entryX=0.45;entryY=1.007;entryDx=0;entryDy=0;entryPerimeter=0;" parent="1" edge="1">
          <mxGeometry width="50" height="50" relative="1" as="geometry">
            <mxPoint x="100" y="630" as="sourcePoint" />
            <mxPoint x="100" y="110.41999999999996" as="targetPoint" />
          </mxGeometry>
        </mxCell>
        <mxCell id="t0pk2Relg8GuADg_41hj-31" value="" style="endArrow=none;html=1;rounded=0;entryX=0.5;entryY=1;entryDx=0;entryDy=0;" parent="1" target="t0pk2Relg8GuADg_41hj-27" edge="1">
          <mxGeometry width="50" height="50" relative="1" as="geometry">
            <mxPoint x="290" y="640" as="sourcePoint" />
            <mxPoint x="300" y="120" as="targetPoint" />
          </mxGeometry>
        </mxCell>
        <mxCell id="t0pk2Relg8GuADg_41hj-32" value="" style="endArrow=none;html=1;rounded=0;entryX=0.5;entryY=1;entryDx=0;entryDy=0;" parent="1" target="t0pk2Relg8GuADg_41hj-28" edge="1">
          <mxGeometry width="50" height="50" relative="1" as="geometry">
            <mxPoint x="471" y="630" as="sourcePoint" />
            <mxPoint x="297" y="120" as="targetPoint" />
          </mxGeometry>
        </mxCell>
        <mxCell id="t0pk2Relg8GuADg_41hj-33" value="" style="endArrow=none;html=1;rounded=0;" parent="1" edge="1">
          <mxGeometry width="50" height="50" relative="1" as="geometry">
            <mxPoint x="652" y="630" as="sourcePoint" />
            <mxPoint x="652" y="110" as="targetPoint" />
          </mxGeometry>
        </mxCell>
        <mxCell id="t0pk2Relg8GuADg_41hj-34" value="1. &amp;lt;다운로드&amp;gt; 클릭" style="html=1;verticalAlign=bottom;endArrow=block;edgeStyle=elbowEdgeStyle;elbow=vertical;curved=0;rounded=0;" parent="1" edge="1">
          <mxGeometry width="80" relative="1" as="geometry">
            <mxPoint x="100" y="140" as="sourcePoint" />
            <mxPoint x="290" y="140" as="targetPoint" />
          </mxGeometry>
        </mxCell>
        <mxCell id="t0pk2Relg8GuADg_41hj-35" value="1.1. 파일명 처리 요청" style="html=1;verticalAlign=bottom;endArrow=block;edgeStyle=elbowEdgeStyle;elbow=vertical;curved=0;rounded=0;" parent="1" edge="1">
          <mxGeometry width="80" relative="1" as="geometry">
            <mxPoint x="290" y="160" as="sourcePoint" />
            <mxPoint x="470" y="160" as="targetPoint" />
          </mxGeometry>
        </mxCell>
        <mxCell id="t0pk2Relg8GuADg_41hj-36" value="alt" style="shape=umlFrame;whiteSpace=wrap;html=1;pointerEvents=0;" parent="1" vertex="1">
          <mxGeometry x="440" y="170" width="320" height="100" as="geometry" />
        </mxCell>
        <mxCell id="t0pk2Relg8GuADg_41hj-37" value="1.1.1. &amp;lt;내사진&amp;gt; 저장 요청" style="html=1;verticalAlign=bottom;endArrow=block;edgeStyle=elbowEdgeStyle;elbow=vertical;curved=0;rounded=0;" parent="1" edge="1">
          <mxGeometry width="80" relative="1" as="geometry">
            <mxPoint x="471" y="210" as="sourcePoint" />
            <mxPoint x="651" y="210" as="targetPoint" />
          </mxGeometry>
        </mxCell>
        <mxCell id="t0pk2Relg8GuADg_41hj-38" value="1.1.1.1. 저장" style="html=1;align=left;spacingLeft=2;endArrow=block;rounded=0;edgeStyle=orthogonalEdgeStyle;curved=0;rounded=0;" parent="1" edge="1">
          <mxGeometry relative="1" as="geometry">
            <mxPoint x="650" y="230" as="sourcePoint" />
            <Array as="points">
              <mxPoint x="680" y="260" />
            </Array>
            <mxPoint x="655" y="260" as="targetPoint" />
          </mxGeometry>
        </mxCell>
        <mxCell id="t0pk2Relg8GuADg_41hj-39" value="1.2. 파일명 처리" style="html=1;verticalAlign=bottom;endArrow=open;dashed=1;endSize=8;edgeStyle=elbowEdgeStyle;elbow=vertical;curved=0;rounded=0;" parent="1" edge="1">
          <mxGeometry relative="1" as="geometry">
            <mxPoint x="470" y="280" as="sourcePoint" />
            <mxPoint x="290" y="280" as="targetPoint" />
          </mxGeometry>
        </mxCell>
        <mxCell id="t0pk2Relg8GuADg_41hj-40" value="1.3. 다운로드" style="html=1;verticalAlign=bottom;endArrow=open;dashed=1;endSize=8;edgeStyle=elbowEdgeStyle;elbow=vertical;curved=0;rounded=0;" parent="1" edge="1">
          <mxGeometry relative="1" as="geometry">
            <mxPoint x="290" y="290" as="sourcePoint" />
            <mxPoint x="100" y="290" as="targetPoint" />
          </mxGeometry>
        </mxCell>
        <mxCell id="t0pk2Relg8GuADg_41hj-41" value="[Login True]" style="text;html=1;strokeColor=none;fillColor=none;align=center;verticalAlign=middle;whiteSpace=wrap;rounded=0;" parent="1" vertex="1">
          <mxGeometry x="499" y="165" width="80" height="30" as="geometry" />
        </mxCell>
        <mxCell id="t0pk2Relg8GuADg_41hj-42" value="2. 이메일 &amp;lt;전송&amp;gt; 클릭" style="html=1;verticalAlign=bottom;endArrow=block;edgeStyle=elbowEdgeStyle;elbow=vertical;curved=0;rounded=0;" parent="1" edge="1">
          <mxGeometry width="80" relative="1" as="geometry">
            <mxPoint x="110" y="340" as="sourcePoint" />
            <mxPoint x="290" y="340" as="targetPoint" />
          </mxGeometry>
        </mxCell>
        <mxCell id="t0pk2Relg8GuADg_41hj-43" value="2.1. 이메일 전송 요청" style="html=1;verticalAlign=bottom;endArrow=block;edgeStyle=elbowEdgeStyle;elbow=vertical;curved=0;rounded=0;" parent="1" edge="1">
          <mxGeometry width="80" relative="1" as="geometry">
            <mxPoint x="290" y="360" as="sourcePoint" />
            <mxPoint x="470" y="360" as="targetPoint" />
          </mxGeometry>
        </mxCell>
        <mxCell id="t0pk2Relg8GuADg_41hj-44" value="2.1.1. 이메일 주소 받아오기 요청" style="html=1;verticalAlign=bottom;endArrow=block;edgeStyle=elbowEdgeStyle;elbow=vertical;curved=0;rounded=0;" parent="1" edge="1">
          <mxGeometry width="80" relative="1" as="geometry">
            <mxPoint x="470" y="428" as="sourcePoint" />
            <mxPoint x="650" y="428" as="targetPoint" />
          </mxGeometry>
        </mxCell>
        <mxCell id="t0pk2Relg8GuADg_41hj-45" value="2.1.1.1. 회원 이메일 조회" style="html=1;align=left;spacingLeft=2;endArrow=block;rounded=0;edgeStyle=orthogonalEdgeStyle;curved=0;rounded=0;" parent="1" edge="1">
          <mxGeometry relative="1" as="geometry">
            <mxPoint x="650" y="438" as="sourcePoint" />
            <Array as="points">
              <mxPoint x="680" y="468" />
            </Array>
            <mxPoint x="655" y="468" as="targetPoint" />
          </mxGeometry>
        </mxCell>
        <mxCell id="t0pk2Relg8GuADg_41hj-46" value="alt" style="shape=umlFrame;whiteSpace=wrap;html=1;pointerEvents=0;" parent="1" vertex="1">
          <mxGeometry x="450" y="375" width="370" height="135" as="geometry" />
        </mxCell>
        <mxCell id="t0pk2Relg8GuADg_41hj-47" value="[Login True]" style="text;html=1;strokeColor=none;fillColor=none;align=center;verticalAlign=middle;whiteSpace=wrap;rounded=0;" parent="1" vertex="1">
          <mxGeometry x="509" y="370" width="80" height="30" as="geometry" />
        </mxCell>
        <mxCell id="t0pk2Relg8GuADg_41hj-48" value="2.1.2. 이메일 정보 전달" style="html=1;verticalAlign=bottom;endArrow=open;dashed=1;endSize=8;edgeStyle=elbowEdgeStyle;elbow=vertical;curved=0;rounded=0;" parent="1" edge="1">
          <mxGeometry relative="1" as="geometry">
            <mxPoint x="650" y="490" as="sourcePoint" />
            <mxPoint x="470" y="490" as="targetPoint" />
          </mxGeometry>
        </mxCell>
        <mxCell id="t0pk2Relg8GuADg_41hj-49" value="2.2. 전송 버튼 비활성화 및 체크아이콘으로 변경" style="html=1;verticalAlign=bottom;endArrow=open;dashed=1;endSize=8;edgeStyle=elbowEdgeStyle;elbow=vertical;curved=0;rounded=0;" parent="1" edge="1">
          <mxGeometry relative="1" as="geometry">
            <mxPoint x="470" y="545" as="sourcePoint" />
            <mxPoint x="290" y="545" as="targetPoint" />
          </mxGeometry>
        </mxCell>
        <mxCell id="t0pk2Relg8GuADg_41hj-50" value="2.3. 이메일 수신" style="html=1;verticalAlign=bottom;endArrow=open;dashed=1;endSize=8;edgeStyle=elbowEdgeStyle;elbow=vertical;curved=0;rounded=0;" parent="1" edge="1">
          <mxGeometry relative="1" as="geometry">
            <mxPoint x="290" y="570" as="sourcePoint" />
            <mxPoint x="100" y="570" as="targetPoint" />
          </mxGeometry>
        </mxCell>
      </root>
    </mxGraphModel>
  </diagram>
</mxfile>
